<svg xmlns="http://www.w3.org/2000/svg" viewBox="0 0 57 57" shape-rendering="crispEdges"><path fill="#ffffff" d="M0 0h57v57H0z"/><path stroke="#1b3b35" d="M2 2.5h7m4 0h1m5 0h1m5 0h1m1 0h1m4 0h1m1 0h2m4 0h2m1 0h2m3 0h7M2 3.5h1m5 0h1m1 0h2m1 0h2m2 0h3m2 0h3m2 0h1m1 0h1m2 0h3m3 0h3m2 0h3m2 0h1m5 0h1M2 4.5h1m1 0h3m1 0h1m2 0h4m1 0h1m1 0h2m4 0h5m1 0h2m1 0h2m1 0h2m1 0h2m1 0h2m1 0h1m2 0h1m1 0h3m1 0h1M2 5.5h1m1 0h3m1 0h1m2 0h1m3 0h5m1 0h2m1 0h3m2 0h1m2 0h3m1 0h1m1 0h1m1 0h5m1 0h1m1 0h1m1 0h3m1 0h1M2 6.5h1m1 0h3m1 0h1m2 0h2m1 0h2m2 0h4m2 0h1m1 0h8m2 0h1m2 0h1m1 0h1m1 0h2m3 0h1m1 0h3m1 0h1M2 7.5h1m5 0h1m1 0h1m4 0h1m1 0h3m1 0h1m1 0h4m3 0h3m4 0h1m1 0h1m3 0h2m3 0h1m5 0h1M2 8.5h7m1 0h1m1 0h1m1 0h1m1 0h1m1 0h1m1 0h1m1 0h1m1 0h1m1 0h1m1 0h1m1 0h1m1 0h1m1 0h1m1 0h1m1 0h1m1 0h1m1 0h1m1 0h1m1 0h1m1 0h7M10 9.5h1m1 0h2m1 0h3m2 0h1m1 0h1m2 0h2m3 0h5m1 0h1m8 0h1M6 10.5h4m1 0h2m1 0h3m1 0h1m1 0h1m2 0h1m2 0h9m3 0h1m2 0h1m1 0h1m2 0h1m1 0h2m3 0h1M4 11.5h2m4 0h1m2 0h2m1 0h4m1 0h3m4 0h2m1 0h1m1 0h1m1 0h1m2 0h2m3 0h1m1 0h2m1 0h1m2 0h1M4 12.5h2m2 0h1m5 0h1m2 0h1m1 0h1m1 0h1m2 0h1m3 0h1m1 0h1m1 0h2m2 0h2m2 0h6m1 0h2m3 0h3M2 13.5h3m5 0h1m1 0h1m1 0h1m1 0h2m3 0h2m3 0h2m1 0h1m1 0h2m1 0h3m1 0h2m1 0h3m1 0h1m1 0h3m2 0h3M3 14.5h1m2 0h1m1 0h5m1 0h5m1 0h6m1 0h5m1 0h1m4 0h1m1 0h5m1 0h1m2 0h1m2 0h3M2 15.5h1m1 0h1m4 0h6m1 0h1m1 0h1m1 0h1m3 0h1m1 0h2m1 0h1m1 0h1m3 0h3m1 0h2m1 0h1m1 0h3m2 0h1m2 0h2M6 16.5h3m3 0h1m1 0h3m1 0h1m1 0h1m1 0h1m2 0h1m1 0h2m2 0h1m3 0h2m2 0h1m5 0h1m1 0h3m2 0h3M3 17.5h2m1 0h2m4 0h5m6 0h5m1 0h1m3 0h2m1 0h1m1 0h1m1 0h1m1 0h2m4 0h1m3 0h1m1 0h1M4 18.5h5m4 0h1m2 0h1m1 0h1m2 0h1m1 0h2m1 0h4m2 0h2m1 0h1m3 0h2m1 0h1m2 0h2m2 0h4m1 0h1M2 19.5h1m6 0h1m3 0h3m5 0h2m4 0h3m1 0h1m1 0h2m2 0h4m1 0h5m4 0h1M3 20.5h2m3 0h1m1 0h2m2 0h1m1 0h4m1 0h3m2 0h1m1 0h4m2 0h1m2 0h8m2 0h2m4 0h2M2 21.5h1m1 0h1m2 0h1m1 0h1m1 0h1m3 0h4m1 0h1m2 0h6m1 0h1m1 0h3m1 0h1m5 0h3m3 0h1m5 0h1M5 22.5h1m1 0h4m1 0h2m5 0h3m1 0h1m1 0h2m2 0h2m2 0h1m4 0h1m1 0h2m1 0h1m1 0h9M4 23.5h4m2 0h3m1 0h1m2 0h1m1 0h1m2 0h1m1 0h1m1 0h1m3 0h2m1 0h2m1 0h6m2 0h1m3 0h2m2 0h3M4 24.5h2m2 0h1m1 0h1m4 0h2m1 0h2m5 0h4m1 0h1m1 0h1m1 0h2m1 0h1m1 0h1m1 0h1m1 0h1m1 0h1m3 0h2m2 0h2M2 25.5h1m4 0h1m3 0h1m1 0h2m1 0h4m1 0h3m3 0h2m3 0h1m1 0h1m2 0h2m2 0h1m2 0h1m3 0h2m1 0h1m2 0h1M3 26.5h1m2 0h5m3 0h2m2 0h1m1 0h3m3 0h5m3 0h1m3 0h2m1 0h1m2 0h9M2 27.5h1m1 0h1m1 0h1m3 0h1m1 0h2m1 0h1m1 0h1m1 0h2m1 0h2m2 0h1m3 0h2m2 0h3m2 0h2m1 0h1m2 0h2m3 0h1m3 0h1M2 28.5h3m1 0h1m1 0h1m1 0h2m2 0h1m1 0h1m2 0h1m3 0h2m1 0h1m1 0h1m1 0h3m2 0h1m1 0h1m7 0h2m1 0h1m1 0h1m2 0h2M3 29.5h2m1 0h1m3 0h4m1 0h1m2 0h1m2 0h1m1 0h2m1 0h1m3 0h2m1 0h4m1 0h2m1 0h2m1 0h1m1 0h1m3 0h1m1 0h1M3 30.5h2m1 0h5m1 0h2m1 0h2m1 0h1m2 0h2m2 0h6m4 0h2m1 0h1m7 0h9M2 31.5h1m1 0h1m1 0h2m1 0h1m2 0h1m2 0h1m1 0h1m1 0h3m3 0h1m2 0h1m3 0h3m1 0h6m1 0h1m1 0h1m1 0h1m2 0h3M2 32.5h1m2 0h1m1 0h3m4 0h4m1 0h7m4 0h1m1 0h3m4 0h2m1 0h2m2 0h2m1 0h1M3 33.5h1m5 0h1m4 0h4m2 0h1m1 0h1m2 0h2m2 0h1m2 0h1m1 0h3m4 0h3m4 0h1m5 0h1M3 34.5h2m1 0h5m1 0h2m2 0h1m1 0h2m1 0h1m1 0h1m3 0h4m1 0h2m2 0h1m1 0h1m1 0h3m1 0h2m3 0h1m1 0h2m1 0h1M4 35.5h4m2 0h2m1 0h1m3 0h9m2 0h1m5 0h1m2 0h1m1 0h3m1 0h4m1 0h1m3 0h1m1 0h1M2 36.5h1m1 0h1m3 0h2m3 0h1m2 0h2m1 0h2m1 0h1m1 0h1m2 0h1m1 0h3m1 0h2m1 0h3m3 0h1m1 0h1m1 0h3m1 0h5M3 37.5h3m3 0h1m1 0h2m2 0h1m2 0h2m1 0h1m4 0h1m4 0h1m1 0h4m1 0h1m4 0h1m3 0h1m1 0h1m3 0h1M2 38.5h1m3 0h3m2 0h1m1 0h1m2 0h3m1 0h1m1 0h1m1 0h3m1 0h1m2 0h1m3 0h3m1 0h2m1 0h3m9 0h1M2 39.5h5m4 0h3m8 0h2m1 0h3m3 0h2m6 0h1m1 0h1m2 0h1m1 0h1m3 0h2M2 40.5h4m2 0h3m3 0h3m2 0h1m1 0h1m3 0h1m1 0h1m3 0h1m1 0h4m2 0h4m1 0h1m1 0h1m1 0h1m1 0h1m2 0h2M3 41.5h2m5 0h1m2 0h3m4 0h1m1 0h2m1 0h1m1 0h2m2 0h1m1 0h3m1 0h1m1 0h2m3 0h1m4 0h1m1 0h1m1 0h2M4 42.5h1m1 0h1m1 0h1m5 0h1m7 0h5m4 0h1m1 0h2m4 0h1m2 0h2m1 0h1m1 0h3m1 0h2M2 43.5h1m1 0h2m1 0h1m2 0h1m1 0h3m2 0h2m1 0h1m1 0h1m3 0h5m1 0h1m2 0h1m2 0h1m7 0h1m1 0h1m3 0h3M2 44.5h2m1 0h4m3 0h1m1 0h1m2 0h1m1 0h1m1 0h1m1 0h1m2 0h1m3 0h1m1 0h2m1 0h1m2 0h3m1 0h1m1 0h4m1 0h1m1 0h3M3 45.5h2m6 0h1m2 0h2m4 0h1m1 0h1m1 0h4m1 0h1m4 0h1m3 0h1m3 0h2m1 0h1m2 0h7M5 46.5h1m2 0h7m3 0h2m1 0h1m2 0h1m1 0h5m3 0h1m1 0h1m1 0h1m1 0h1m2 0h8m2 0h1M10 47.5h3m1 0h1m1 0h1m2 0h4m1 0h1m1 0h1m3 0h1m1 0h1m3 0h1m1 0h1m1 0h2m2 0h3m3 0h2m1 0h2M2 48.5h7m1 0h1m1 0h2m1 0h1m1 0h1m1 0h2m1 0h1m1 0h3m1 0h1m1 0h4m1 0h1m1 0h3m1 0h3m1 0h2m1 0h1m1 0h2m1 0h2M2 49.5h1m5 0h1m1 0h1m1 0h4m1 0h2m1 0h2m1 0h1m1 0h2m3 0h2m1 0h2m1 0h1m1 0h1m3 0h1m3 0h1m3 0h3m1 0h1M2 50.5h1m1 0h3m1 0h1m1 0h3m3 0h1m2 0h1m2 0h1m3 0h5m3 0h1m3 0h1m2 0h2m3 0h6M2 51.5h1m1 0h3m1 0h1m2 0h1m1 0h8m2 0h1m1 0h4m3 0h4m1 0h1m1 0h3m2 0h3m2 0h4M2 52.5h1m1 0h3m1 0h1m2 0h2m1 0h6m1 0h1m2 0h3m1 0h2m1 0h1m1 0h1m1 0h2m3 0h2m3 0h5m3 0h2M2 53.5h1m5 0h1m2 0h1m1 0h2m4 0h6m2 0h1m1 0h1m1 0h1m1 0h1m1 0h1m1 0h1m1 0h2m2 0h1m2 0h1m1 0h2m4 0h1M2 54.5h7m4 0h1m4 0h2m3 0h2m1 0h2m5 0h2m2 0h1m1 0h1m2 0h2m3 0h1m2 0h2"/></svg>
